<?xml version="1.0" encoding="UTF-8"?>
<!-- Points LEFT by default: kiosk.js mirrors it for rightward flights. -->
<svg xmlns="http://www.w3.org/2000/svg" viewBox="0 0 100 100" width="100" height="100">
  <path d="M72 52 C84 46 90 36 93 26" stroke="#FF3296" stroke-width="7" stroke-linecap="round" fill="none"/>
  <path d="M73 57 C86 52 93 43 97 34" stroke="#FF4600" stroke-width="6" stroke-linecap="round" fill="none"/>
  <path d="M72 62 C85 60 93 54 98 47" stroke="#FFC400" stroke-width="5" stroke-linecap="round" fill="none"/>
  <path d="M40 64 L31 86" stroke="#EDF2F5" stroke-width="8" stroke-linecap="round" fill="none"/>
  <path d="M52 66 L52 88" stroke="#EDF2F5" stroke-width="8" stroke-linecap="round" fill="none"/>
  <path d="M62 64 L72 84" stroke="#EDF2F5" stroke-width="8" stroke-linecap="round" fill="none"/>
  <path d="M34 62 L20 78" stroke="#EDF2F5" stroke-width="7" stroke-linecap="round" fill="none"/>
  <ellipse cx="52" cy="54" rx="23" ry="14" fill="#EDF2F5"/>
  <path d="M28 54 L18 32 L33 26 L43 50 Z" fill="#EDF2F5"/>
  <path d="M31 31 C27 21 17 16 10 21 C4 25 5 33 11 35 L27 40 Z" fill="#EDF2F5"/>
  <path d="M19 19 L24 17 L17 2 Z" fill="#FFC400"/>
  <path d="M28 20 L34 17 L33 25 Z" fill="#EDF2F5"/>
  <circle cx="17" cy="27" r="2.2" fill="#070540"/>
  <path d="M27 19 C36 23 41 33 44 48 C37 43 32 35 25 31 Z" fill="#FF3296"/>
</svg>
