<?xml version="1.0" encoding="UTF-8"?>
<svg id="Layer_1" data-name="Layer 1" xmlns="http://www.w3.org/2000/svg" viewBox="0 0 1140 455">
  <defs>
    <style>
      .cls-1 {
        fill: #fff;
      }
    </style>
  </defs>
  <path class="cls-1" d="M1058.71,100.76c-13.64-9.39-27.55-18.38-41.31-27.65-2.27-1.74-5.58-2.59-8.39-2.19-2.2.27-18.01,2.21-24.17,3.09-3.88.79-6.9,3.58-8.3,7.12-.16.27-.35.38-.6.32-.84-.33-1.71-1.11-2.53-1.59-3.65-2.96-7.78-3.93-12.4-2.91-4.23.53-12.66,1.59-17.29,2.17-16.11.9-12.94,13.34-13.19,24.93,0,1.99,0,3.54,0,3.97-.09.19-.28-.04-.64-.25-10.06-6.71-20.11-13.41-30.23-20.15-1.74-1.19-3.8-1.94-5.92-2.04-3.12-.08-13.13,1.59-20.68,2.4-6.35.06-12.47,3.59-13.23,10.28-.07.3-.18.46-.38.43-2.63-1.5-5.12-3.42-7.72-5.06-3.6-2.51-7.45-2.21-11.65-1.51-6.17.77-18.02,2.26-19.46,2.44-4.29.47-7.87,3.4-9.4,7.31-.13.21-.28.33-.46.34-1.59-.6-2.88-1.89-4.39-2.75-2.32-1.7-5.44-2.47-8.27-2.07-1.45.18-13.42,1.69-19.47,2.45-6.77.09-13.09,3.9-13.4,11.14,0,2.49-.05,6.06-.02,8.55-.07,1.3.22,1.71-.67,1.1-4.97-3.3-10.01-6.68-14.97-9.97-4.76-3.83-16.54-5.84-26.54-3.84-8.66,1.15-19.04,2.32-27.08,3.42-11.13,1.64-22.59,7.34-27.74,18.46-.27.52-.59.69-1.05.42-3.38-2.23-6.82-4.54-10.16-6.76-7.19-5.54-18.68-5.46-29.96-3.48-12.76,1.6-36.58,4.59-37.82,4.75-4.83.6-8.86,4.32-9.74,9.08-.08.45-.26,1.08-.78.71-4.49-2.65-8.81-7.28-14.5-6.63-5.97.65-20.58,2.63-22.87,2.86-4.08.46-7.7,3.19-9.24,6.92-.2.4-.45.47-.81.26-5.13-3.82-8.63-5.45-15.25-4.01-6.23.89-14.17,1.64-19.81,2.54-2.85.57-5.33,2.31-6.92,4.52-.27.32-.55.4-.93.18-2.51-1.9-5.77-3.1-8.97-2.65-1.4.18-44.24,5.56-60.71,7.62-9.25.61-14.76,2.34-16.22,11.11.62,7.69-6.36-8.84-27.78-5.58-2.08.52-35.6,4.23-46.66,5.91-10.89,2.58-8.92,13.29-9,21.87-.04,1.18.26,1.73-.62,1.08-7.64-5.1-15.39-10.26-23.06-15.37-3.33-2.68-7.58-2.87-11.71-2.05-6.82.97-18.05,2.13-24.93,3.18-4.57.85-7.59,4.61-8.97,8.78-2.08-.68-4.13-2.68-6.15-3.82-2.31-1.66-5.32-2.45-8.13-2.09-1.38.17-43.19,5.42-60.08,7.55-9.98,1.07-14.47,1.56-16.75,10.49-.06.25-.1.77-.38.79-10.12-7.18-18.47-7.31-33.37-4.94-13.67,1.8-29.39,1.98-38.59,12.07-12.45,13.77-7.34,27.47-8.37,49.04-.92,15.36,3.57,25.52,12.97,33.65,2.7,2.86,6.83,6.61,9.55,9.45.2.19.13.17-.26.22-9.74,1.46-21.12.29-22.58,11.69-.47,8.2.18,20.39-.07,28.25-.57,8.4,1.31,16.03,6.71,22.25,13.85,11.52,30.04,20.27,44.7,30.7,2.63,1.78,5.11,3.01,8.39,3.88,5.06,1.37,10.9,1.21,16.25.36,4.92-.62,15.02-1.89,20.63-2.59,14.99-.85,28.05-8.8,32.02-21.94.18-.62.46-.73.95-.38,28.22,18.42,16.76,15.9,50.32,11.81,3.6-.74,6.55-3.22,8-6.44.16-.3.32-.5.54-.51,1.36.47,2.49,1.62,3.82,2.38,2.29,1.67,5.43,2.44,8.22,2.04,2.62-.34,18.37-2.25,24.82-3.17,5.89-1.12,9.14-6.6,9.22-12.29.09-.59.33-.52.75-.24,5.67,3.1,10.46,8.94,17.32,9.08,1.67-.09,2.55-.26,4.39-.48,4.67-.59,13.27-1.67,17.67-2.22,3.98-.23,8.04-1.43,10.44-4.81.33-.4.63-.53,1.08-.27,2.07,1.49,4.53,2.6,7.12,2.6,7.44-.6,17.22-2.07,25.05-3.06,4.8-.99,8.41-5.03,8.92-9.87.08-.57.29-.74.72-.47,4.87,2.79,9.28,7.83,15.41,7.24,6.12-.67,21.41-2.73,23.68-2.96,6.69-.6,11.62-7.75,9.69-14.21-.07-.75-1.16-2.61-.88-3.14,5.52,3.54,10.96,7.31,16.47,10.93,2.7,1.96,6.04,2.69,9.3,2.08,5.2-.62,13.64-1.74,18.59-2.33,8.11-.2,13.37-5.82,12.6-13.91.06-4.65-.1-12.91.05-17.26,9.25,5.95,18.46,12.3,27.68,18.38,6.19,4.57,14.26,5.97,22.12,4.95,20.68-3.34,41.45-1.03,52.25-18.26.29-.44.63-.55,1.08-.28,3.97,2.61,7.93,5.33,11.94,7.93,3.02,1.87,6.45,1.78,9.86,1.18,5.73-.72,18.75-2.35,19.77-2.48,5.52-.6,10.08-5.67,9.97-11.31,0-1.66,0-39.99,0-41.64.26-.22.89-.14,1.48-.26.75-.12,1.1.09,1.35.69,1.23,2.66,2.89,5.08,4.95,7.15,13.91,10.77,29.33,19.68,43.75,29.75,6.49,4.64,14.83,5.95,22.97,5.01,22.64-3.72,52.55-.65,60.65-27.07.17-.53.51-.61.93-.35,10.81,6.26,17.11,14.71,31.36,15.27,3.55.11,6.69-.34,10.33-.81,16.9-2.83,27.74-1.31,39.59-8.3,4.19-2.58,7.62-5.98,10.14-9.95.3-.45.69-.52,1.11-.25,6.34,3.35,11.87,10.41,19.56,9.66,2.09-.26,52.23-6.56,53.56-6.73.11-.02.42-.06.92-.17,5.49-1.1,9.32-6.28,9-11.85,0-.69.35-.62.79-.28,6.28,4.2,10.27,7.41,19.77,7.89,10.14,0,16.25-1.78,30.68-3.28,9.96-.7,20.18-4.25,26.28-11.06,5.33-5.54,8.34-13.23,8.33-21.44,0-2.16,0-129.71,0-131.87-.03-3.12-1.36-6.35-3.76-8.44l-.14-.12Z"/>
  <g>
    <path d="M127.79,323.12c4.62-.58,5.63-2.52,5.63-4.53v-7.86c0-9.27-3.21-11.08-11.05-18.75l-23.11-22.88c-7.23-6.95-10.05-10.62-10.05-21.5v-31.62c0-10.07,5.63-18.84,19.89-20.63l25.92-3.26c14.07-1.77,19.89,5.56,19.89,15.63v39.28l-22.3,2.8v-33.64c0-2.01-1.01-3.7-5.43-3.15l-9.44,1.19c-4.62.58-5.83,2.54-5.83,4.56v20.14c0,8.06,1.61,10.88,5.63,14.2l28.73,24.99c7.64,6.7,9.44,12.51,9.44,23.19v20.14c0,10.27-6.43,18.94-19.69,20.6l-27.53,3.46c-13.06,1.64-19.69-5.38-19.69-15.66v-30.62l22.71-2.85v24.98c0,2.42,2.01,3.57,5.22,3.17l11.05-1.39Z"/>
    <path d="M192.09,334.99v-129.92l-22.3,2.8v-20.14l67.11-8.43v20.14l-22.5,2.83v129.92l-22.3,2.8Z"/>
    <path d="M235.69,329.51l25.32-153.25,27.13-3.41,24.72,146.96-23.71,2.98-3.21-22.76-23.51,2.95-2.61,23.49-24.11,3.03ZM274.47,214.06l-.8.1-9.24,67.83,19.69-2.47-9.64-65.46Z"/>
    <path d="M330.34,317.63v-150.07l45.81-5.75c14.07-1.77,19.89,5.36,19.89,15.63v63.05c0,7.65-3.62,16.37-17.48,19.32l9.04,6.72,15.07,42.02-23.51,2.95-16.68-49.67-9.64,1.21v51.77l-22.5,2.83ZM368.31,241.35c4.22-.53,5.22-2.47,5.22-4.48v-50.96c0-2.01-1-3.7-5.22-3.17l-15.47,1.94v58.62l15.47-1.94Z"/>
    <path d="M436.03,304.35v-129.92l-22.3,2.8v-20.14l67.11-8.43v20.14l-22.5,2.83v129.92l-22.3,2.8Z"/>
    <path d="M537.5,271.67c4.22-.53,5.02-2.44,5.02-4.46v-126.3l22.71-2.85v131.94c0,10.27-6.83,18.99-19.69,20.6l-27.33,3.43c-13.06,1.64-19.69-5.38-19.69-15.66v-131.94l22.5-2.83v126.3c0,2.42,1.81,3.6,5.43,3.15l11.05-1.39Z"/>
    <path d="M590.55,134.88l45.81-5.75c14.07-1.77,19.89,5.56,19.89,15.63v49.75c0,15.51-1,30.54-18.89,32.79l-24.31,3.05v51.77l-22.5,2.83v-150.07ZM628.53,208.67c4.22-.53,5.23-2.47,5.23-4.48v-50.96c0-2.01-1-3.7-5.23-3.17l-15.47,1.94v58.62l15.47-1.94Z"/>
    <path d="M676.73,142.19c0-10.07,6.13-18.9,21.68-20.85l29.35-3.69c15.33-1.93,21.68,5.33,21.68,15.41v113.81c0,10.27-7.45,19.06-21.46,20.82l-29.79,3.74c-14.24,1.79-21.47-5.16-21.47-15.43v-113.81ZM719.22,248.85c4.6-.58,5.47-2.5,5.47-4.51v-102.53c0-2.01-.88-3.72-5.47-3.14l-11.83,1.49c-4.82.6-6.13,2.58-6.13,4.6v102.53c0,2.42,1.97,3.58,5.91,3.09l12.05-1.51Z"/>
    <path d="M816.67,236.61c4.35-.55,5.18-2.46,5.18-4.48v-126.3l23.39-2.94v131.94c0,10.27-7.04,19.01-20.28,20.68l-28.15,3.53c-13.45,1.69-20.28-5.31-20.28-15.58V111.53l23.18-2.91v126.3c0,2.42,1.86,3.59,5.59,3.13l11.38-1.43Z"/>
    <path d="M871.05,99.66l22.1-2.78v130.12l31.55-3.96v19.94l-53.65,6.74V99.66Z"/>
    <path d="M982,215.85c4.35-.55,5.18-2.46,5.18-4.48v-126.3l23.39-2.94v131.94c0,10.27-7.04,19.01-20.28,20.68l-28.15,3.53c-13.45,1.69-20.28-5.31-20.28-15.58V90.77l23.18-2.91v126.3c0,2.42,1.86,3.59,5.59,3.13l11.38-1.43Z"/>
  </g>
</svg>